HIERARCHY
ROOT pelvis
{
  OFFSET 0 100 0
  CHANNELS 6 Xposition Yposition Zposition Zrotation Xrotation Yrotation
  JOINT pelvis_right_femur
  {
    OFFSET -10.78128 -3.44521 -0.5502486
    CHANNELS 3 Zrotation Xrotation Yrotation
    JOINT right_femur_tibia
    {
      OFFSET -0.8047443 -44.0398 -0.1307829
      CHANNELS 3 Zrotation Xrotation Yrotation
      JOINT right_tibia_foot
      {
        OFFSET 3.006224 -47.83518 -5
        CHANNELS 3 Zrotation Xrotation Yrotation
        End Site
        {
          OFFSET 0 -5 15
        }
      }
    }
  }
  JOINT pelvis_left_femur
  {
    OFFSET 10.78128 -3.44521 -0.5502486
    CHANNELS 3 Zrotation Xrotation Yrotation
    JOINT left_femur_tibia
    {
      OFFSET 0.8047443 -44.0398 -0.1307829
      CHANNELS 3 Zrotation Xrotation Yrotation
      JOINT left_tibia_foot
      {
        OFFSET -4.370144 -48.10324 -4.275266
        CHANNELS 3 Zrotation Xrotation Yrotation
        End Site
        {
          OFFSET 0 -5 15
        }
      }
    }
  }
  JOINT pelvis_spine1
  {
    OFFSET 0 6.468898 -3.129235
    CHANNELS 3 Zrotation Xrotation Yrotation
    JOINT spine1
    {
      OFFSET 0 23.15396 4.99043
      CHANNELS 3 Zrotation Xrotation Yrotation
      JOINT spine2
      {
        OFFSET 0 20.79997 -5.064912
        CHANNELS 3 Zrotation Xrotation Yrotation
        JOINT neck
        {
          OFFSET 0 14.38658 9.616178
          CHANNELS 3 Zrotation Xrotation Yrotation
          End Site
          {
            OFFSET 0 20 0
          }
        }
      }
      JOINT right_manubrium
      {
        OFFSET -5.722621 16.35077 3.967754
        CHANNELS 3 Zrotation Xrotation Yrotation
        JOINT right_clavicle
        {
          OFFSET -13.16364 1.694482 -4.693211
          CHANNELS 3 Zrotation Xrotation Yrotation
          JOINT right_humerus
          {
            OFFSET -28.5034 -0.3100689 -2.792744
            CHANNELS 3 Zrotation Xrotation Yrotation
            JOINT right_radius
            {
              OFFSET -25.15693 0.02248979 -1.271978
              CHANNELS 3 Zrotation Xrotation Yrotation
              End Site
              {
                OFFSET -15 0 0
              }
            }
          }
        }
      }
      JOINT left_manubrium
      {
        OFFSET 5.722621 16.35077 3.967754
        CHANNELS 3 Zrotation Xrotation Yrotation
        JOINT left_clavicle
        {
          OFFSET 13.16364 1.694482 -4.693211
          CHANNELS 3 Zrotation Xrotation Yrotation
          JOINT left_humerus
          {
            OFFSET 29.39168 -1.063119 -2.237045
            CHANNELS 3 Zrotation Xrotation Yrotation
            JOINT left_radius
            {
              OFFSET 24.59957 -0.9528479 0.9047498
              CHANNELS 3 Zrotation Xrotation Yrotation
              End Site
              {
                OFFSET 15 -0 -0
              }
            }
          }
        }
      }
    }
  }
}
MOTION
Frames: 7
Frame Time: 0.0416666666667
5.655475 104.1865 183.6885 -0.9313443 -13.20158 -4.433137 3.343525 8.335045 -11.15757 -0 31.52841 -0 -19.11637 9.680271 9.09327 2.011338 -9.015193 -9.840595 -0 20.97137 -0 -10.20497 1.062251 8.757066 2.788577 -4.863769 6.7236 -4.129638 19.33915 -0.9456733 1.190434 19.47095 7.817378 11.609 -10.14388 1.986662 7.087866 -26.07136 14.94284 82.10328 14.14849 -10.75109 -0 0 31.67083 -39.2746 28.40648 15.47071 10.03085 -27.99789 -14.347 -102.8226 -1.570516 39.63758 -0 0 11.19905 21.52018 24.36683 -14.55406
6.941057 104.1851 189.5778 -0.7504222 -13.2129 -3.641277 3.343525 8.335045 -11.15757 -0 31.52841 -0 -19.11637 9.680271 9.09327 2.011338 -9.015193 -9.840595 -0 20.97137 -0 -10.20497 1.062251 8.757066 2.788577 -4.863769 6.7236 -4.129638 19.33915 -0.9456733 1.190434 19.47095 7.817378 11.609 -10.14388 1.986662 7.087866 -26.07136 14.94284 82.10328 14.14849 -10.75109 -0 0 31.67083 -39.2746 28.40648 15.47071 10.03085 -27.99789 -14.347 -102.8226 -1.570516 39.63758 -0 0 11.19905 21.52018 24.36683 -14.55406
8.305771 104.1838 195.4493 -0.5693493 -13.22178 -2.849351 3.343525 8.335045 -11.15757 -0 31.52841 -0 -19.11637 9.680271 9.09327 2.011338 -9.015193 -9.840595 -0 20.97137 -0 -10.20497 1.062251 8.757066 2.788577 -4.863769 6.7236 -4.129638 19.33915 -0.9456733 1.190434 19.47095 7.817378 11.609 -10.14388 1.986662 7.087866 -26.07136 14.94284 82.10328 14.14849 -10.75109 -0 0 31.67083 -39.2746 28.40648 15.47071 10.03085 -27.99789 -14.347 -102.8226 -1.570516 39.63758 -0 0 11.19905 21.52018 24.36683 -14.55406
9.749367 104.1824 201.3019 -0.3881619 -13.22822 -2.057376 3.343525 8.335045 -11.15757 -0 31.52841 -0 -19.11637 9.680271 9.09327 2.011338 -9.015193 -9.840595 -0 20.97137 -0 -10.20497 1.062251 8.757066 2.788577 -4.863769 6.7236 -4.129638 19.33915 -0.9456733 1.190434 19.47095 7.817378 11.609 -10.14388 1.986662 7.087866 -26.07136 14.94284 82.10328 14.14849 -10.75109 -0 0 31.67083 -39.2746 28.40648 15.47071 10.03085 -27.99789 -14.347 -102.8226 -1.570516 39.63758 -0 0 11.19905 21.52018 24.36683 -14.55406
11.27159 104.1811 207.1345 -0.2068964 -13.23222 -1.265366 3.343525 8.335045 -11.15757 -0 31.52841 -0 -19.11637 9.680271 9.09327 2.011338 -9.015193 -9.840595 -0 20.97137 -0 -10.20497 1.062251 8.757066 2.788577 -4.863769 6.7236 -4.129638 19.33915 -0.9456733 1.190434 19.47095 7.817378 11.609 -10.14388 1.986662 7.087866 -26.07136 14.94284 82.10328 14.14849 -10.75109 -0 0 31.67083 -39.2746 28.40648 15.47071 10.03085 -27.99789 -14.347 -102.8226 -1.570516 39.63758 -0 0 11.19905 21.52018 24.36683 -14.55406
12.87215 104.1797 212.9462 -0.02558935 -13.23379 -0.4733388 3.343525 8.335045 -11.15757 -0 31.52841 -0 -19.11637 9.680271 9.09327 2.011338 -9.015193 -9.840595 -0 20.97137 -0 -10.20497 1.062251 8.757066 2.788577 -4.863769 6.7236 -4.129638 19.33915 -0.9456733 1.190434 19.47095 7.817378 11.609 -10.14388 1.986662 7.087866 -26.07136 14.94284 82.10328 14.14849 -10.75109 -0 0 31.67083 -39.2746 28.40648 15.47071 10.03085 -27.99789 -14.347 -102.8226 -1.570516 39.63758 -0 0 11.19905 21.52018 24.36683 -14.55406
14.55077 104.1783 218.7357 0.1557229 -13.23291 0.3186909 3.343525 8.335045 -11.15757 -0 31.52841 -0 -19.11637 9.680271 9.09327 2.011338 -9.015193 -9.840595 -0 20.97137 -0 -10.20497 1.062251 8.757066 2.788577 -4.863769 6.7236 -4.129638 19.33915 -0.9456733 1.190434 19.47095 7.817378 11.609 -10.14388 1.986662 7.087866 -26.07136 14.94284 82.10328 14.14849 -10.75109 -0 0 31.67083 -39.2746 28.40648 15.47071 10.03085 -27.99789 -14.347 -102.8226 -1.570516 39.63758 -0 0 11.19905 21.52018 24.36683 -14.55406
